# xmcd
#
# Track frame offsets: 
#        150
#        13041
#        29824
#        40701
#        54228
#        67767
#        80471
#        92379
#        104902
#        117705
#        132937
#        146367
#        158879
#        169820
#        185069
#
# Disc length: 2693 seconds
#
# Revision: 0
# Processed by: cddbd v1.5.2PL0 Copyright (c) Steve Scherf et al.
# Submitted via: ExactAudioCopy v1.1
#
DISCID=cc0a830f
DTITLE=Various Artist - Various ‎– Simply Blues
DYEAR=2012
DGENRE=Blues
TTITLE0=Pete Johnson With Joe Turner - Roll'em Pete
TTITLE1=Albert Ammons - Boogie Woogie Blues
TTITLE2=Albert Ammons - Shout For Joy
TTITLE3=Lucille Bogan - Baking Powder Blues
TTITLE4=Big Joe Turner - Shake, Rattle And Roll
TTITLE5=Big Joe Turner - Flip Flop And Fly
TTITLE6=Louis Jordan - Caldonia
TTITLE7=Louis Jordan - Choo Choo Ch' Boogie
TTITLE8=Amos Milburn - Chicken Shack Boogie
TTITLE9=Arthur "Guitar Boogie" Smith - Guitar Boogie
TTITLE10=T-Bone Walker - T-Bone Shuffle
TTITLE11=Tiny Bradshaw - Train Kept A-Rollin'
TTITLE12=Tiny Bradshaw - Take The Hands Off The Clock
TTITLE13=Lil Green - Romance In The Dark
TTITLE14=Otis Spann - It Must Have Been The Devil
EXTD=
EXTT0=
EXTT1=
EXTT2=
EXTT3=
EXTT4=
EXTT5=
EXTT6=
EXTT7=
EXTT8=
EXTT9=
EXTT10=
EXTT11=
EXTT12=
EXTT13=
EXTT14=
PLAYORDER=
